<?xml version="1.0" standalone="no"?>
<!DOCTYPE svg PUBLIC "-//W3C//DTD SVG 20010904//EN"
 "http://www.w3.org/TR/2001/REC-SVG-20010904/DTD/svg10.dtd">
<svg version="1.0" xmlns="http://www.w3.org/2000/svg"
 width="1920.000000pt" height="1080.000000pt" viewBox="0 0 1920.000000 1080.000000"
 preserveAspectRatio="xMidYMid meet">
<metadata>
Created by potrace 1.13, written by Peter Selinger 2001-2015
</metadata>
<g transform="translate(0.000000,1080.000000) scale(0.100000,-0.100000)"
fill="#000000" stroke="none">
<path d="M3690 6260 l0 -2240 -715 0 -715 0 0 -45 0 -45 715 0 715 0 0 -220 0
-220 1600 0 1600 0 0 220 0 220 5035 0 5035 0 0 45 0 45 -5035 0 -5035 0 0
2240 0 2240 -1600 0 -1600 0 0 -2240z m1740 977 c20 -7 41 -24 51 -42 28 -50
861 -2377 863 -2409 1 -22 -5 -33 -24 -43 -35 -18 -220 -17 -264 1 -37 16 -24
-16 -177 419 l-84 237 -530 -2 -530 -3 -105 -307 c-70 -204 -113 -315 -128
-330 -20 -20 -34 -23 -130 -26 -120 -3 -155 7 -160 48 -3 26 849 2402 870
2428 27 32 72 41 193 41 67 0 135 -5 155 -12z m1440 -3262 l0 -35 -1585 0
-1585 0 0 35 0 35 1585 0 1585 0 0 -35z"/>
<path d="M5045 6293 c-115 -333 -211 -612 -213 -620 -3 -11 73 -13 433 -13
346 0 436 3 432 13 -2 6 -100 285 -217 620 -117 334 -216 607 -219 607 -3 0
-100 -273 -216 -607z"/>
<path d="M7980 6596 c-128 -33 -230 -96 -357 -219 l-83 -81 0 116 c0 161 -2
163 -148 163 -78 0 -114 -4 -125 -14 -16 -12 -17 -89 -17 -917 l0 -903 22 -12
c29 -15 152 -24 213 -15 92 14 85 -38 85 666 l0 619 59 68 c167 194 296 271
434 260 149 -13 239 -99 295 -282 13 -42 16 -148 19 -671 4 -612 4 -622 25
-640 17 -16 37 -19 138 -19 102 0 121 3 139 19 21 19 21 21 21 643 l0 624 128
128 c104 105 140 135 197 162 61 30 79 34 150 34 67 0 89 -4 137 -28 66 -32
112 -80 145 -153 50 -109 53 -159 53 -800 l0 -594 26 -17 c18 -12 54 -18 113
-21 108 -5 168 9 181 44 13 33 13 1015 0 1199 -5 77 -18 174 -29 216 -58 228
-207 380 -416 424 -237 50 -426 -19 -653 -239 -51 -49 -94 -87 -96 -85 -2 2
-15 27 -29 55 -61 122 -158 205 -290 251 -88 31 -254 40 -337 19z"/>
<path d="M10895 6600 c-149 -24 -300 -74 -406 -136 -79 -47 -93 -72 -94 -165
0 -84 20 -129 57 -129 11 0 69 24 127 54 198 100 330 134 489 123 195 -12 305
-98 341 -265 6 -29 11 -105 11 -167 l0 -115 -179 0 c-391 0 -635 -67 -786
-215 -100 -99 -145 -215 -145 -373 0 -155 45 -269 144 -367 102 -102 229 -152
412 -162 199 -11 361 49 536 198 l56 49 4 -90 c4 -116 10 -122 120 -128 61 -3
93 0 121 12 l38 15 -3 698 c-3 669 -4 701 -24 768 -59 203 -182 321 -393 376
-88 24 -328 34 -426 19z m525 -1220 l0 -190 -42 -46 c-63 -68 -189 -159 -255
-184 -145 -55 -314 -30 -403 59 -63 63 -84 125 -78 235 5 95 27 145 87 199 99
89 205 114 504 116 l187 1 0 -190z"/>
<path d="M14370 6599 c-248 -42 -453 -195 -568 -424 -78 -156 -107 -309 -106
-555 1 -207 21 -333 74 -467 124 -309 396 -472 790 -473 261 0 608 91 647 170
7 14 13 59 13 100 0 81 -16 120 -49 120 -9 0 -65 -18 -124 -40 -182 -69 -260
-84 -437 -84 -123 -1 -167 3 -215 17 -230 71 -344 235 -362 520 l-6 97 589 0
c566 0 590 1 621 20 52 31 58 52 57 185 -6 463 -225 753 -614 815 -77 12 -233
11 -310 -1z m315 -265 c176 -61 284 -231 285 -446 l0 -68 -470 0 -470 0 0 31
c0 55 31 173 66 245 57 121 173 219 299 251 66 17 225 10 290 -13z"/>
<path d="M12256 6554 c-23 -22 -29 -55 -24 -138 6 -124 -26 -115 423 -118
l383 -3 -384 -600 c-212 -330 -399 -627 -416 -660 -51 -98 -52 -242 -3 -291
l24 -24 570 0 571 0 15 23 c34 52 31 191 -6 228 -18 18 -38 19 -438 19 l-420
0 391 613 c215 336 402 636 415 665 30 63 41 181 24 235 -23 70 2 67 -583 67
-465 0 -528 -2 -542 -16z"/>
<path d="M11192 3438 c-9 -9 -12 -70 -12 -211 l0 -199 -37 32 c-54 48 -109 70
-177 70 -82 0 -131 -17 -185 -66 -108 -97 -146 -312 -91 -506 56 -195 286
-252 456 -113 l43 35 3 -47 3 -48 55 0 55 0 -1 524 c-2 428 -4 525 -15 532
-21 13 -83 11 -97 -3z m-136 -438 c23 -12 61 -41 83 -65 l41 -45 0 -137 0
-138 -32 -39 c-53 -64 -112 -96 -179 -96 -48 0 -63 5 -90 27 -49 42 -71 103
-77 214 -3 70 0 110 12 152 17 58 64 123 100 137 37 15 99 10 142 -10z"/>
<path d="M13707 3382 c-10 -10 -17 -33 -17 -50 0 -63 71 -94 121 -53 26 21 31
80 9 106 -18 22 -93 19 -113 -3z"/>
<path d="M5072 3288 c-7 -7 -12 -41 -12 -90 l0 -77 -57 -3 -58 -3 0 -50 0 -50
58 -3 57 -3 0 -237 c0 -132 5 -253 10 -274 14 -48 55 -97 97 -114 43 -18 145
-18 189 1 34 14 35 16 32 62 -3 52 2 50 -80 36 -58 -9 -87 3 -104 42 -11 26
-14 87 -14 259 l0 225 98 3 97 3 0 50 0 50 -97 3 -97 3 -5 52 c-3 29 -7 68 -9
87 -2 34 -3 35 -47 38 -26 2 -50 -2 -58 -10z"/>
<path d="M2335 3107 c-58 -28 -88 -58 -110 -109 -28 -68 -13 -152 38 -206 24
-26 102 -68 181 -97 70 -27 116 -73 116 -117 0 -102 -146 -142 -278 -75 -62
31 -77 33 -86 11 -33 -85 58 -145 218 -145 120 0 193 32 240 105 71 109 28
240 -96 296 -173 77 -198 91 -214 121 -20 40 -10 82 28 114 41 35 131 35 206
0 30 -14 58 -22 63 -19 5 3 9 25 9 49 0 42 -2 46 -42 67 -33 16 -65 23 -133
25 -79 4 -96 1 -140 -20z"/>
<path d="M16392 3112 c-106 -38 -179 -124 -206 -241 -42 -183 6 -371 112 -444
60 -42 116 -57 213 -57 174 0 281 73 335 230 28 83 26 254 -5 334 -29 73 -79
130 -145 164 -69 35 -223 42 -304 14z m215 -104 c44 -13 89 -67 108 -130 19
-66 19 -190 -1 -257 -57 -193 -326 -199 -390 -9 -16 49 -21 183 -9 239 30 141
144 202 292 157z"/>
<path d="M7714 3095 c-3 -14 -4 -137 -2 -273 4 -186 9 -259 21 -295 34 -105
106 -157 220 -158 76 -1 135 21 202 76 l44 36 3 -47 c3 -42 6 -49 28 -54 14
-3 39 -3 55 0 l30 6 0 364 0 365 -60 0 -60 0 -5 -257 -5 -257 -30 -32 c-108
-115 -238 -120 -288 -11 -19 43 -22 70 -27 302 l-5 255 -57 3 c-54 3 -58 2
-64 -23z"/>
<path d="M13705 3108 c-3 -7 -4 -173 -3 -367 l3 -355 27 -7 c14 -4 41 -4 60 0
l33 7 0 364 0 365 -58 3 c-40 2 -59 -1 -62 -10z"/>
</g>
</svg>
